<?xml version="1.0" encoding="utf-8"?>
<!-- Generator: Adobe Illustrator 19.2.0, SVG Export Plug-In . SVG Version: 6.00 Build 0)  -->
<svg version="1.1" id="Layer_1" xmlns="http://www.w3.org/2000/svg" xmlns:xlink="http://www.w3.org/1999/xlink" x="0px" y="0px"
	 viewBox="0 0 162.9 167.1" style="enable-background:new 0 0 162.9 167.1;" xml:space="preserve" width="162.9px" height="167.1px">
<style type="text/css">
	.st0{fill:#E5E5E5;}
	.st1{fill:#BCBCBC;}
	.st2{fill:none;stroke:#FFFFFF;stroke-width:2;stroke-miterlimit:10;}
</style>
<path class="st0" d="M152.9,167.1H10c-5.5,0-10-4.5-10-10V10C0,4.5,4.5,0,10,0h142.9c5.5,0,10,4.5,10,10v147.1
	C162.9,162.6,158.4,167.1,152.9,167.1z"/>
<path class="st1" d="M34.8,24.5H16.7c-2.9,0-5.3-2.4-5.3-5.3v-0.4c0-2.9,2.4-5.3,5.3-5.3h18.1c2.9,0,5.3,2.4,5.3,5.3v0.4
	C40.1,22.1,37.7,24.5,34.8,24.5z"/>
<g>
	<path class="st1" d="M87.5,22.2h-6.9c-1.2,0-2.2-1-2.2-2.2v-0.2c0-1.2,1-2.2,2.2-2.2h6.9c1.2,0,2.2,1,2.2,2.2V20
		C89.7,21.2,88.7,22.2,87.5,22.2z"/>
	<path class="st1" d="M107.2,22.2h-6.9c-1.2,0-2.2-1-2.2-2.2v-0.2c0-1.2,1-2.2,2.2-2.2h6.9c1.2,0,2.2,1,2.2,2.2V20
		C109.4,21.2,108.4,22.2,107.2,22.2z"/>
	<path class="st1" d="M126.9,22.2H120c-1.2,0-2.2-1-2.2-2.2v-0.2c0-1.2,1-2.2,2.2-2.2h6.9c1.2,0,2.2,1,2.2,2.2V20
		C129,21.2,128.1,22.2,126.9,22.2z"/>
	<path class="st1" d="M146.6,22.2h-6.9c-1.2,0-2.2-1-2.2-2.2v-0.2c0-1.2,1-2.2,2.2-2.2h6.9c1.2,0,2.2,1,2.2,2.2V20
		C148.7,21.2,147.8,22.2,146.6,22.2z"/>
</g>
<line class="st2" x1="162.9" y1="38.9" x2="0" y2="38.9"/>
</svg>
