<?xml version="1.0" encoding="utf-8"?>
<!-- Generator: Adobe Illustrator 19.2.0, SVG Export Plug-In . SVG Version: 6.00 Build 0)  -->
<svg version="1.1" id="Layer_1" xmlns="http://www.w3.org/2000/svg" xmlns:xlink="http://www.w3.org/1999/xlink" x="0px" y="0px"
	 viewBox="0 0 162.9 167.1" style="enable-background:new 0 0 162.9 167.1;" xml:space="preserve" width="162.9px" height="167.1px">
<style type="text/css">
	.st0{fill:#E5E5E5;}
	.st1{fill:#BCBCBC;}
	.st2{fill:none;stroke:#FFFFFF;stroke-width:2;stroke-miterlimit:10;}
</style>
<path class="st0" d="M152.9,167.1H10c-5.5,0-10-4.5-10-10V10C0,4.5,4.5,0,10,0h142.9c5.5,0,10,4.5,10,10v147.1
	C162.9,162.6,158.4,167.1,152.9,167.1z"/>
<path class="st1" d="M145.6,24.5h-18.1c-2.9,0-5.3-2.4-5.3-5.3v-0.4c0-2.9,2.4-5.3,5.3-5.3h18.1c2.9,0,5.3,2.4,5.3,5.3v0.4
	C150.9,22.1,148.5,24.5,145.6,24.5z"/>
<g>
	<path class="st1" d="M23.8,22.2h-6.9c-1.2,0-2.2-1-2.2-2.2v-0.2c0-1.2,1-2.2,2.2-2.2h6.9c1.2,0,2.2,1,2.2,2.2V20
		C26,21.2,25,22.2,23.8,22.2z"/>
	<path class="st1" d="M43.5,22.2h-6.9c-1.2,0-2.2-1-2.2-2.2v-0.2c0-1.2,1-2.2,2.2-2.2h6.9c1.2,0,2.2,1,2.2,2.2V20
		C45.7,21.2,44.7,22.2,43.5,22.2z"/>
	<path class="st1" d="M63.2,22.2h-6.9c-1.2,0-2.2-1-2.2-2.2v-0.2c0-1.2,1-2.2,2.2-2.2h6.9c1.2,0,2.2,1,2.2,2.2V20
		C65.4,21.2,64.4,22.2,63.2,22.2z"/>
	<path class="st1" d="M82.9,22.2H76c-1.2,0-2.2-1-2.2-2.2v-0.2c0-1.2,1-2.2,2.2-2.2h6.9c1.2,0,2.2,1,2.2,2.2V20
		C85.1,21.2,84.1,22.2,82.9,22.2z"/>
</g>
<line class="st2" x1="162.9" y1="38.9" x2="0" y2="38.9"/>
</svg>
