<?xml version="1.0" encoding="utf-8"?>
<!-- Generator: Adobe Illustrator 19.2.0, SVG Export Plug-In . SVG Version: 6.00 Build 0)  -->
<svg version="1.1" id="Layer_1" xmlns="http://www.w3.org/2000/svg" xmlns:xlink="http://www.w3.org/1999/xlink" x="0px" y="0px"
	 viewBox="0 0 162.9 167.1" style="enable-background:new 0 0 162.9 167.1;" xml:space="preserve" width="162.9px" height="167.1px">
<style type="text/css">
	.st0{fill:#E5E5E5;}
	.st1{fill:#BCBCBC;}
	.st2{fill:none;stroke:#FFFFFF;stroke-width:2;stroke-miterlimit:10;}
</style>
<path class="st0" d="M152.9,167.1H10c-5.5,0-10-4.5-10-10V10C0,4.5,4.5,0,10,0h142.9c5.5,0,10,4.5,10,10v147.1
	C162.9,162.6,158.4,167.1,152.9,167.1z"/>
<path class="st1" d="M34.8,152.1H16.7c-2.9,0-5.3-2.4-5.3-5.3v-0.4c0-2.9,2.4-5.3,5.3-5.3h18.1c2.9,0,5.3,2.4,5.3,5.3v0.4
	C40.1,149.7,37.7,152.1,34.8,152.1z"/>
<g>
	<path class="st1" d="M87.5,149.8h-6.9c-1.2,0-2.2-1-2.2-2.2v-0.2c0-1.2,1-2.2,2.2-2.2h6.9c1.2,0,2.2,1,2.2,2.2v0.2
		C89.7,148.8,88.7,149.8,87.5,149.8z"/>
	<path class="st1" d="M107.2,149.8h-6.9c-1.2,0-2.2-1-2.2-2.2v-0.2c0-1.2,1-2.2,2.2-2.2h6.9c1.2,0,2.2,1,2.2,2.2v0.2
		C109.4,148.8,108.4,149.8,107.2,149.8z"/>
	<path class="st1" d="M126.9,149.8H120c-1.2,0-2.2-1-2.2-2.2v-0.2c0-1.2,1-2.2,2.2-2.2h6.9c1.2,0,2.2,1,2.2,2.2v0.2
		C129,148.8,128.1,149.8,126.9,149.8z"/>
	<path class="st1" d="M146.6,149.8h-6.9c-1.2,0-2.2-1-2.2-2.2v-0.2c0-1.2,1-2.2,2.2-2.2h6.9c1.2,0,2.2,1,2.2,2.2v0.2
		C148.7,148.8,147.8,149.8,146.6,149.8z"/>
</g>
<line class="st2" x1="162.9" y1="126.1" x2="0" y2="126.1"/>
</svg>
