<?xml version="1.0" encoding="utf-8"?>
<!-- Generator: Adobe Illustrator 19.2.0, SVG Export Plug-In . SVG Version: 6.00 Build 0)  -->
<svg version="1.1" id="Layer_1" xmlns="http://www.w3.org/2000/svg" xmlns:xlink="http://www.w3.org/1999/xlink" x="0px" y="0px"
	 viewBox="0 0 162.9 167.1" style="enable-background:new 0 0 162.9 167.1;" xml:space="preserve" width="162.9px" height="167.1px">
<style type="text/css">
	.st0{fill:#E5E5E5;}
	.st1{fill:#BCBCBC;}
	.st2{fill:none;stroke:#FFFFFF;stroke-width:2;stroke-miterlimit:10;}
</style>
<path class="st0" d="M152.9,167.1H10c-5.5,0-10-4.5-10-10V10C0,4.5,4.5,0,10,0h142.9c5.5,0,10,4.5,10,10v147.1
	C162.9,162.6,158.4,167.1,152.9,167.1z"/>
<path class="st1" d="M142,24.5h-18.1c-2.9,0-5.3-2.4-5.3-5.3v-0.4c0-2.9,2.4-5.3,5.3-5.3H142c2.9,0,5.3,2.4,5.3,5.3v0.4
	C147.3,22.1,145,24.5,142,24.5z"/>
<g>
	<path class="st1" d="M42.1,21.2H13.6c-1.2,0-2.2-1-2.2-2.2v-0.2c0-1.2,1-2.2,2.2-2.2h28.5c1.2,0,2.2,1,2.2,2.2v0.2
		C44.3,20.2,43.3,21.2,42.1,21.2z"/>
	<path class="st1" d="M57.4,21.2h-7.5c-1.2,0-2.2-1-2.2-2.2v-0.2c0-1.2,1-2.2,2.2-2.2h7.5c1.2,0,2.2,1,2.2,2.2v0.2
		C59.5,20.2,58.5,21.2,57.4,21.2z"/>
</g>
<g>
	<path class="st1" d="M86.1,55.4h-6.9c-1.2,0-2.2-1-2.2-2.2v-0.2c0-1.2,1-2.2,2.2-2.2h6.9c1.2,0,2.2,1,2.2,2.2v0.2
		C88.3,54.4,87.3,55.4,86.1,55.4z"/>
	<g>
		<path class="st1" d="M105.8,55.4h-6.9c-1.2,0-2.2-1-2.2-2.2v-0.2c0-1.2,1-2.2,2.2-2.2h6.9c1.2,0,2.2,1,2.2,2.2v0.2
			C107.9,54.4,107,55.4,105.8,55.4z"/>
		<path class="st1" d="M125.5,55.4h-6.9c-1.2,0-2.2-1-2.2-2.2v-0.2c0-1.2,1-2.2,2.2-2.2h6.9c1.2,0,2.2,1,2.2,2.2v0.2
			C127.6,54.4,126.7,55.4,125.5,55.4z"/>
		<path class="st1" d="M145.2,55.4h-6.9c-1.2,0-2.2-1-2.2-2.2v-0.2c0-1.2,1-2.2,2.2-2.2h6.9c1.2,0,2.2,1,2.2,2.2v0.2
			C147.3,54.4,146.4,55.4,145.2,55.4z"/>
	</g>
</g>
<line class="st2" x1="162.9" y1="38.9" x2="0" y2="38.9"/>
<line class="st2" x1="162.9" y1="66.1" x2="0" y2="66.1"/>
</svg>
